<?xml version="1.0" encoding="utf-8"?>
<!-- Generator: Adobe Illustrator 16.0.0, SVG Export Plug-In . SVG Version: 6.00 Build 0)  -->
<!DOCTYPE svg PUBLIC "-//W3C//DTD SVG 1.1//EN" "http://www.w3.org/Graphics/SVG/1.1/DTD/svg11.dtd">
<svg version="1.1" id="Layer_1" xmlns="http://www.w3.org/2000/svg" xmlns:xlink="http://www.w3.org/1999/xlink" x="0px" y="0px"
	 width="113px" height="61.667px" viewBox="0 0 113 61.667" enable-background="new 0 0 113 61.667" xml:space="preserve">
<g>
	<g>
		<g>
			<path fill="#6F7073" d="M11.246,53.899H9.095v-0.426h4.763v0.426h-2.151v5.748h-0.46V53.899z"/>
			<path fill="#6F7073" d="M15.316,53.212h0.433v2.775c0.3-0.527,0.803-0.943,1.623-0.943c1.139,0,1.799,0.777,1.799,1.854v2.75
				h-0.432v-2.672c0-0.926-0.52-1.533-1.428-1.533c-0.884,0-1.562,0.668-1.562,1.604v2.602h-0.433V53.212z"/>
			<path fill="#6F7073" d="M21.073,53.386h0.536v0.59h-0.536V53.386z M21.126,55.151h0.432v4.496h-0.432V55.151z"/>
			<path fill="#6F7073" d="M23.601,55.151h0.435v0.836c0.299-0.527,0.801-0.943,1.623-0.943c1.137,0,1.799,0.777,1.799,1.854v2.75
				h-0.432v-2.672c0-0.926-0.522-1.533-1.43-1.533c-0.883,0-1.561,0.668-1.561,1.604v2.602h-0.435V55.151z"/>
			<path fill="#6F7073" d="M29.347,53.212h0.434v4.822l2.786-2.883h0.574l-1.969,1.992l2.031,2.504h-0.549l-1.781-2.193
				l-1.093,1.102v1.092h-0.434V53.212z"/>
			<path fill="#6F7073" d="M37.711,53.474h2.24c1.358,0,2.295,0.697,2.295,1.891v0.016c0,1.299-1.121,1.969-2.409,1.969h-1.666
				v2.299h-0.46V53.474z M39.864,56.925c1.146,0,1.922-0.6,1.922-1.52V55.39c0-0.98-0.76-1.49-1.87-1.49h-1.745v3.025H39.864z"/>
			<path fill="#6F7073" d="M43.492,57.419v-0.02c0-1.26,0.98-2.355,2.32-2.355c1.332,0,2.304,1.076,2.304,2.338v0.018
				c0,1.262-0.979,2.357-2.321,2.357C44.464,59.757,43.492,58.681,43.492,57.419z M47.648,57.419v-0.02
				c0-1.084-0.813-1.949-1.854-1.949c-1.066,0-1.835,0.875-1.835,1.932v0.018c0,1.086,0.812,1.949,1.853,1.949
				C46.879,59.349,47.648,58.478,47.648,57.419z"/>
			<path fill="#6F7073" d="M49.396,59.085l0.256-0.344c0.494,0.381,1.042,0.592,1.613,0.592c0.61,0,1.086-0.336,1.086-0.855v-0.02
				c0-0.529-0.563-0.723-1.19-0.898c-0.732-0.211-1.543-0.432-1.543-1.234v-0.02c0-0.723,0.608-1.242,1.481-1.242
				c0.537,0,1.146,0.191,1.597,0.494l-0.23,0.359c-0.412-0.271-0.908-0.447-1.384-0.447c-0.619,0-1.022,0.334-1.022,0.783v0.018
				c0,0.504,0.607,0.689,1.251,0.873c0.723,0.205,1.482,0.467,1.482,1.264v0.016c0,0.803-0.688,1.316-1.552,1.316
				C50.588,59.739,49.873,59.474,49.396,59.085z"/>
			<path fill="#6F7073" d="M54.517,53.386h0.539v0.59h-0.539V53.386z M54.57,55.151h0.433v4.496H54.57V55.151z"/>
			<path fill="#6F7073" d="M57.286,58.493v-2.945h-0.653v-0.396h0.653v-1.439h0.431v1.439h1.579v0.396h-1.579v2.902
				c0,0.643,0.38,0.873,0.9,0.873c0.221,0,0.405-0.045,0.662-0.16v0.408c-0.23,0.105-0.449,0.156-0.731,0.156
				C57.85,59.728,57.286,59.349,57.286,58.493z"/>
			<path fill="#6F7073" d="M60.925,53.386h0.539v0.59h-0.539V53.386z M60.979,55.151h0.43v4.496h-0.43V55.151z"/>
			<path fill="#6F7073" d="M62.995,55.151h0.502l1.703,4.012l1.722-4.012h0.482l-2.018,4.533h-0.37L62.995,55.151z"/>
			<path fill="#6F7073" d="M68.354,57.409v-0.018c0-1.307,0.918-2.348,2.135-2.348c1.261,0,2.064,1.025,2.064,2.355
				c0,0.08,0,0.107-0.01,0.178h-3.729c0.078,1.119,0.882,1.771,1.764,1.771c0.696,0,1.172-0.307,1.542-0.705l0.302,0.266
				c-0.458,0.494-0.996,0.848-1.862,0.848C69.378,59.757,68.354,58.812,68.354,57.409z M72.085,57.187
				c-0.062-0.906-0.58-1.744-1.614-1.744c-0.891,0-1.579,0.75-1.657,1.744H72.085z"/>
			<path fill="#6F7073" d="M77.301,53.474h0.459v6.174h-0.459V53.474z"/>
			<path fill="#6F7073" d="M79.607,57.419v-0.02c0-1.463,1.104-2.355,2.188-2.355c0.9,0,1.481,0.514,1.854,1.076v-2.908h0.433v6.436
				h-0.433v-1.004c-0.39,0.592-0.961,1.113-1.854,1.113C80.712,59.757,79.607,58.882,79.607,57.419z M83.676,57.409v-0.018
				c0-1.156-0.899-1.932-1.836-1.932c-0.979,0-1.763,0.713-1.763,1.922v0.018c0,1.182,0.82,1.941,1.763,1.941
				C82.776,59.341,83.676,58.556,83.676,57.409z"/>
			<path fill="#6F7073" d="M85.752,57.409v-0.018c0-1.307,0.916-2.348,2.136-2.348c1.261,0,2.064,1.025,2.064,2.355
				c0,0.08,0,0.107-0.012,0.178h-3.73c0.08,1.119,0.882,1.771,1.766,1.771c0.696,0,1.173-0.307,1.542-0.705l0.3,0.266
				c-0.458,0.494-0.996,0.848-1.86,0.848C86.776,59.757,85.752,58.812,85.752,57.409z M89.483,57.187
				c-0.062-0.906-0.582-1.744-1.617-1.744c-0.889,0-1.576,0.75-1.656,1.744H89.483z"/>
			<path fill="#6F7073" d="M91.18,58.345v-0.018c0-0.936,0.802-1.465,1.968-1.465c0.626,0,1.059,0.08,1.492,0.195v-0.195
				c0-0.91-0.557-1.377-1.483-1.377c-0.548,0-0.997,0.15-1.412,0.363l-0.158-0.379c0.492-0.23,0.979-0.389,1.597-0.389
				c0.61,0,1.095,0.166,1.42,0.494c0.3,0.299,0.458,0.713,0.458,1.27v2.803H94.64v-0.746c-0.312,0.432-0.866,0.855-1.723,0.855
				C92.078,59.757,91.18,59.278,91.18,58.345z M94.647,57.964v-0.51c-0.381-0.098-0.883-0.201-1.527-0.201
				c-0.951,0-1.479,0.42-1.479,1.047v0.018c0,0.654,0.617,1.031,1.304,1.031C93.862,59.349,94.647,58.784,94.647,57.964z"/>
			<path fill="#6F7073" d="M96.564,59.085l0.258-0.344c0.494,0.381,1.04,0.592,1.611,0.592c0.61,0,1.088-0.336,1.088-0.855v-0.02
				c0-0.529-0.565-0.723-1.192-0.898c-0.73-0.211-1.543-0.432-1.543-1.234v-0.02c0-0.723,0.608-1.242,1.481-1.242
				c0.54,0,1.146,0.191,1.598,0.494l-0.229,0.359c-0.415-0.271-0.907-0.447-1.385-0.447c-0.62,0-1.025,0.334-1.025,0.783v0.018
				c0,0.504,0.609,0.689,1.254,0.873c0.722,0.205,1.481,0.467,1.481,1.264v0.016c0,0.803-0.688,1.316-1.553,1.316
				C97.757,59.739,97.042,59.474,96.564,59.085z"/>
		</g>
	</g>
	<g>
		<g>
			<path fill="#81BA26" d="M68.972,42.737c0,1.504-1.223,2.725-2.729,2.725c-1.501,0-2.728-1.221-2.728-2.725
				c0-1.506,1.227-2.729,2.728-2.729C67.749,40.009,68.972,41.231,68.972,42.737z"/>
			<path fill="#81BA26" d="M88.981,1.91c-11.151,0-20.2,9.043-20.2,20.199c0,4.652,1.578,8.936,4.225,12.351
				c-1.795,1.172-2.92,2.828-2.92,4.672c0,3.547,4.164,6.424,9.305,6.424c3.499,0,6.547-1.336,8.136-3.309
				c0.48,0.035,0.966,0.061,1.455,0.061c11.15,0,20.196-9.043,20.196-20.198C109.178,10.953,100.132,1.91,88.981,1.91z
				 M102.348,24.027c-2.059,0-11.44,0-11.44,0s0,9.388,0,11.448h-3.845c0-2.061,0-11.448,0-11.448s-9.387,0-11.447,0v-3.841
				c2.061,0,11.447,0,11.447,0s0-9.389,0-11.445h3.845c0,2.057,0,11.445,0,11.445s9.382,0,11.44,0V24.027z"/>
		</g>
		<path fill="#767476" d="M21.495,17.136H9.959c-4.028,0-6.137,2.402-6.137,4.774c0,2.326,1.97,4.686,5.739,4.838v14.386
			c0,1.545,0.783,2.873,2.203,3.746c1.083,0.664,2.499,1.033,3.992,1.033c1.467,0,2.875-0.369,3.963-1.029
			c1.436-0.877,2.226-2.205,2.226-3.75V26.745c3.699-0.172,5.635-2.5,5.635-4.8C27.58,19.554,25.493,17.136,21.495,17.136z
			 M21.495,25.059h-1.246v16.075c0,2.033-2.273,3.08-4.492,3.08c-2.277,0-4.499-1.047-4.499-3.08V25.059H9.959
			c-2.922,0-4.44-1.556-4.44-3.148c0-1.557,1.519-3.079,4.44-3.079h11.536c2.927,0,4.387,1.556,4.387,3.114
			C25.882,23.503,24.422,25.059,21.495,25.059z"/>
		<path fill="#767476" d="M49.754,22.105c-0.611-1.016-1.472-1.919-2.558-2.681c-2.11-1.48-4.894-2.296-7.833-2.296h-5.36
			c-1.528,0-2.979,0.398-4.07,1.121c-1.314,0.874-2.068,2.188-2.068,3.616v19.295c0,1.533,0.766,2.855,2.156,3.723
			c1.049,0.656,2.428,1.018,3.872,1.018c1.479,0,2.874-0.371,3.938-1.047c1.384-0.881,2.146-2.219,2.146-3.764V37.38
			c2.715-0.105,5.261-0.918,7.229-2.314c1.083-0.768,1.942-1.68,2.552-2.7c0.659-1.115,0.998-2.307,0.998-3.55V25.63
			C50.757,24.399,50.418,23.211,49.754,22.105z M49.061,28.815c0,3.805-4.335,6.883-9.697,6.883h-1.081v5.393
			c0,2.064-2.168,3.113-4.39,3.113c-2.161,0-4.329-1.012-4.329-3.043V21.866c0-1.811,2.003-3.043,4.439-3.043h5.36
			c5.362,0,9.697,3.043,9.697,6.807V28.815z"/>
		<path fill="#767476" d="M60.229,18.196c-0.978-0.686-2.273-1.061-3.648-1.061c-1.369,0-2.66,0.383-3.637,1.078
			c-1.228,0.875-1.899,2.188-1.899,3.694V41.12c0,1.504,0.672,2.816,1.899,3.691c0.977,0.697,2.268,1.08,3.637,1.08
			c1.375,0,2.671-0.377,3.648-1.062c1.252-0.875,1.939-2.205,1.939-3.746V21.945C62.169,20.405,61.481,19.073,60.229,18.196z
			 M60.473,41.083c0,2.135-1.944,3.113-3.892,3.113c-1.95,0-3.846-1.012-3.846-3.076V21.908c0-2.062,1.896-3.077,3.846-3.077
			c1.947,0,3.892,0.978,3.892,3.114V41.083z"/>
	</g>
</g>
</svg>
